<svg width="70" height="73" viewBox="0 0 70 73" fill="none" xmlns="http://www.w3.org/2000/svg">
<rect width="69.5812" height="72.948" rx="20" fill="#F09E54"/>
<path d="M34.5006 46.1026C39.767 46.1026 44.0363 41.8034 44.0363 36.5C44.0363 31.1967 39.767 26.8975 34.5006 26.8975C29.2341 26.8975 24.9648 31.1967 24.9648 36.5C24.9648 41.8034 29.2341 46.1026 34.5006 46.1026Z" fill="white"/>
<path d="M34.5005 21.3429C33.88 21.3429 33.3786 20.838 33.3786 20.2131V15.1298C33.3786 14.505 33.88 14 34.5005 14C35.1211 14 35.6225 14.505 35.6225 15.1298V20.2131C35.6225 20.838 35.1211 21.3429 34.5005 21.3429Z" fill="white"/>
<path d="M34.5005 59C33.88 59 33.3786 58.495 33.3786 57.8702V52.7869C33.3786 52.162 33.88 51.657 34.5005 51.657C35.1211 51.657 35.6225 52.162 35.6225 52.7869V57.8702C35.6225 58.495 35.1211 59 34.5005 59Z" fill="white"/>
<path d="M16.1233 48.315C15.7359 48.315 15.3586 48.1123 15.1506 47.7492C14.8404 47.2088 15.0249 46.5181 15.5615 46.2056L19.9336 43.664C20.4703 43.3515 21.1562 43.5373 21.4665 44.0777C21.7767 44.6182 21.5922 45.3089 21.0556 45.6213L16.6835 48.163C16.5074 48.266 16.3145 48.315 16.1233 48.315V48.315Z" fill="white"/>
<path d="M48.5073 29.4864C48.1199 29.4864 47.7426 29.2837 47.5347 28.9206C47.2244 28.3802 47.4089 27.6895 47.9455 27.3771L52.3176 24.8354C52.8543 24.523 53.5402 24.7088 53.8505 25.2492C54.1607 25.7896 53.9762 26.4803 53.4396 26.7927L49.0675 29.3344C48.8914 29.4374 48.6985 29.4864 48.5073 29.4864V29.4864Z" fill="white"/>
<path d="M52.8778 48.315C52.6883 48.315 52.4954 48.266 52.3176 48.163L47.9455 45.6213C47.4089 45.3089 47.2244 44.6182 47.5347 44.0777C47.8449 43.5373 48.5308 43.3515 49.0675 43.664L53.4396 46.2056C53.9762 46.5181 54.1607 47.2088 53.8505 47.7492C53.6425 48.1123 53.2652 48.315 52.8778 48.315V48.315Z" fill="white"/>
<path d="M20.4921 29.4864C20.3026 29.4864 20.1097 29.4374 19.9319 29.3344L15.5615 26.7927C15.0249 26.4803 14.8404 25.7896 15.1506 25.2492C15.4609 24.7088 16.1468 24.523 16.6835 24.8354L21.0556 27.3771C21.5922 27.6895 21.7767 28.3802 21.4665 28.9206C21.2585 29.2837 20.8812 29.4864 20.4938 29.4864H20.4921Z" fill="white"/>
</svg>
