<svg width="70" height="73" viewBox="0 0 70 73" fill="none" xmlns="http://www.w3.org/2000/svg">
<rect width="69.5812" height="72.948" rx="20" fill="#7D54F0"/>
<path d="M18.5955 34.102C14.9592 34.102 12 36.9954 12 40.551C12 44.1065 14.9592 47 18.5955 47H51.5714C54.5912 47 57.0476 44.5982 57.0476 41.6454C57.0476 38.6925 54.599 36.2983 51.5869 36.2907C51.5433 36.2922 51.4826 36.2953 51.4639 36.2953C50.9549 36.2953 50.5175 35.9346 50.4366 35.4399C49.9166 32.3044 47.1832 30.0304 43.936 30.0304C43.0285 30.0304 42.1459 30.21 41.3131 30.5632C40.8165 30.7732 40.2359 30.5769 39.9806 30.1081C38.2574 26.9574 34.9231 25 31.2774 25C26.3149 25 22.1119 28.6301 21.5017 33.446C21.4644 33.7352 21.3025 33.9954 21.0565 34.1613C20.809 34.3257 20.5024 34.3775 20.2128 34.309C19.6633 34.1735 19.1185 34.1035 18.5955 34.1035V34.102Z" fill="white"/>
</svg>
