<svg width="70" height="73" viewBox="0 0 70 73" fill="none" xmlns="http://www.w3.org/2000/svg">
<rect width="69.5812" height="72.948" rx="20" fill="#EF5DA8"/>
<path d="M18.081 33.2858C18.081 29.403 21.241 26.2448 25.1277 26.2448C28.0672 26.2448 30.6197 28.0189 31.6697 30.6695C27.2866 31.8691 23.818 35.3994 22.7728 39.9187C19.9999 38.9394 18.081 36.3052 18.081 33.2841V33.2858Z" fill="white"/>
<path d="M56.2555 56H21.6607C17.8459 56 14.7414 52.8974 14.7414 49.0847C14.7414 45.2721 17.8459 42.1694 21.6607 42.1694C22.2094 42.1694 22.781 42.2429 23.3575 42.3881C23.6596 42.4648 23.9829 42.4077 24.2409 42.2314C24.5006 42.0552 24.6704 41.7761 24.708 41.4644C25.3498 36.302 29.7591 32.4077 34.9653 32.4077C38.7899 32.4077 42.2879 34.5066 44.0941 37.8851C44.3619 38.3862 44.9678 38.5983 45.4936 38.3731C46.3673 37.9928 47.2933 37.8019 48.2453 37.8019C51.6519 37.8019 54.5196 40.2419 55.065 43.6024C55.1516 44.1312 55.6072 44.5197 56.1428 44.5197C56.1657 44.5197 56.2343 44.5164 56.2735 44.5148C59.4335 44.5246 62.0023 47.0968 62.0023 50.2566C62.0023 53.4164 59.4253 55.9984 56.2571 55.9984L56.2555 56Z" fill="white"/>
<path d="M25.1261 22.0356C25.7287 22.0356 26.2186 21.5476 26.2186 20.9437V17.0919C26.2186 16.488 25.7287 16 25.1261 16C24.5235 16 24.0335 16.488 24.0335 17.0919V20.9437C24.0335 21.5476 24.5235 22.0356 25.1261 22.0356Z" fill="white"/>
<path d="M15.3767 38.9117C15.0746 38.3878 14.4066 38.2115 13.8841 38.5118L10.5461 40.4377C10.0235 40.7397 9.84549 41.4072 10.146 41.9295C10.3485 42.2804 10.7159 42.4763 11.0931 42.4763C11.2793 42.4763 11.4671 42.4289 11.6386 42.3294L14.9766 40.4035C15.4992 40.1015 15.6772 39.434 15.3767 38.9117Z" fill="white"/>
<path d="M35.8226 28.2083C36.0088 28.2083 36.1966 28.1609 36.3681 28.0614L39.706 26.1355C40.2286 25.8335 40.4066 25.166 40.1061 24.6437C39.804 24.1214 39.1361 23.9419 38.6135 24.2438L35.2755 26.1697C34.753 26.4717 34.575 27.1392 34.8754 27.6615C35.0779 28.0124 35.4454 28.2083 35.8226 28.2083V28.2083Z" fill="white"/>
<path d="M10.5477 26.1338L13.8857 28.0597C14.0572 28.1593 14.245 28.2066 14.4311 28.2066C14.8084 28.2066 15.1758 28.0108 15.3783 27.6599C15.6804 27.1376 15.5008 26.47 14.9782 26.1681L11.6402 24.2422C11.1193 23.9403 10.4497 24.1198 10.1476 24.6421C9.84549 25.1643 10.0251 25.8319 10.5477 26.1338V26.1338Z" fill="white"/>
</svg>
