<svg width="70" height="73" viewBox="0 0 70 73" fill="none" xmlns="http://www.w3.org/2000/svg">
<rect x="0.136719" width="69.5812" height="72.948" rx="20" fill="#65D2D0"/>
<g clip-path="url(#clip0_113_2648)">
<path d="M48.5354 45.3619H16.4228C12.8817 45.3619 10 42.4967 10 38.9758C10 35.455 12.8817 32.5898 16.4228 32.5898C16.9321 32.5898 17.4627 32.6576 17.9993 32.7932C18.2813 32.8626 18.5799 32.8098 18.8194 32.647C19.0589 32.4843 19.2166 32.2265 19.253 31.9402C19.8472 27.1728 23.9401 23.5781 28.7727 23.5781C32.3245 23.5781 35.57 25.5164 37.2465 28.6363C37.4951 29.0991 38.0606 29.295 38.5441 29.0855C39.3567 28.7358 40.2162 28.558 41.0984 28.558C44.2605 28.558 46.9224 30.8113 47.4288 33.9146C47.5091 34.4029 47.9335 34.7617 48.4292 34.7617C48.4459 34.7617 48.5065 34.7587 48.549 34.7571C51.4822 34.7647 53.8667 37.1401 53.8667 40.0595C53.8667 42.979 51.4747 45.3619 48.5338 45.3619H48.5354Z" fill="white"/>
<path d="M55.7676 41.3979C55.8495 40.9639 55.8965 40.5162 55.8965 40.0595C55.8965 36.2659 52.9784 33.1369 49.2569 32.7752C48.2852 29.1171 44.9776 26.5413 41.0984 26.5413C40.2389 26.5413 39.3976 26.6679 38.5851 26.9211C37.5042 25.23 36.0202 23.8751 34.2966 22.9496C36.1051 21.0686 38.579 20 41.2273 20C46.0599 20 50.1528 23.5947 50.7485 28.362C50.7849 28.6484 50.9426 28.9061 51.1821 29.0689C51.4216 29.2317 51.7187 29.2875 52.0022 29.2151C52.5388 29.081 53.0694 29.0131 53.5787 29.0131C57.1198 29.0131 60.0015 31.8784 60.0015 35.3992C60.0015 38.1213 58.2537 40.4981 55.7692 41.3979H55.7676Z" fill="white"/>
<path d="M25.7501 48.8104C25.3544 48.417 24.7117 48.417 24.316 48.8104L20.5339 52.5709C20.1382 52.9643 20.1382 53.6034 20.5339 53.9967C20.7325 54.1942 20.9917 54.2922 21.2509 54.2922C21.5101 54.2922 21.7693 54.1942 21.9679 53.9967L25.7501 50.2362C26.1457 49.8429 26.1457 49.2038 25.7501 48.8104Z" fill="white"/>
<path d="M39.6538 48.8104L33.6539 54.776C33.2582 55.1694 33.2582 55.8084 33.6539 56.2018C33.8525 56.3993 34.1117 56.4972 34.3709 56.4972C34.6301 56.4972 34.8893 56.3993 35.0879 56.2018L41.0878 50.2362C41.4834 49.8429 41.4834 49.2038 41.0878 48.8104C40.6922 48.417 40.0494 48.417 39.6538 48.8104V48.8104Z" fill="white"/>
<path d="M33.3826 48.8104C32.9869 48.417 32.3442 48.417 31.9485 48.8104L22.4257 58.2787C22.0301 58.6721 22.0301 59.3112 22.4257 59.7046C22.6243 59.902 22.8835 60 23.1427 60C23.402 60 23.6612 59.902 23.8598 59.7046L33.3826 50.2362C33.7782 49.8429 33.7782 49.2038 33.3826 48.8104Z" fill="white"/>
</g>
<defs>
<clipPath id="clip0_113_2648">
<rect width="50" height="40" fill="white" transform="translate(10 20)"/>
</clipPath>
</defs>
</svg>
