<svg width="24" height="24" viewBox="0 0 24 24" fill="none" xmlns="http://www.w3.org/2000/svg">
<path fill-rule="evenodd" clip-rule="evenodd" d="M11.0339 3C6.04548 3 1.99988 7.02849 1.99988 12C1.99988 16.9715 6.04548 21 11.0339 21C13.8997 21 16.5446 19.6603 18.2414 17.4268C18.5755 16.9871 18.4898 16.3597 18.05 16.0256C17.6102 15.6915 16.9829 15.7772 16.6488 16.217C15.3266 17.9574 13.2683 19 11.0339 19C7.14816 19 3.99988 15.865 3.99988 12C3.99988 8.13496 7.14816 5 11.0339 5C14.316 5 17.1126 7.25003 17.8677 10.3333H16.3C16.163 10.3333 16.0297 10.3737 15.92 10.4485C15.6402 10.6393 15.5835 11.0002 15.7934 11.2545L18.3267 14.3252C18.3627 14.3689 18.4053 14.4076 18.4533 14.4404C18.7332 14.6312 19.1301 14.5796 19.34 14.3252L21.8733 11.2545C21.9555 11.1549 22 11.0337 22 10.9091C22 10.5911 21.7164 10.3333 21.3667 10.3333H19.9132C19.1226 6.12318 15.4142 3 11.0339 3ZM13.9085 10.035C13.1199 9.32167 11.8416 9.32167 11.053 10.035L10.75 10.2827L10.447 10.035C9.65877 9.32167 8.38005 9.32167 7.59144 10.035C6.80284 10.748 6.80284 11.9043 7.59144 12.6173L10.75 15.5L13.9085 12.6173C14.6971 11.9043 14.6971 10.748 13.9085 10.035Z" fill="#707373"/>
</svg>
