<svg width="24" height="24" viewBox="0 0 24 24" fill="none" xmlns="http://www.w3.org/2000/svg">
<path fill-rule="evenodd" clip-rule="evenodd" d="M13.5898 21.0938C14.1992 21.0938 14.6211 20.6016 14.9102 19.8516L20.0664 6.36719C20.1992 6.01562 20.2773 5.71094 20.2773 5.44531C20.2773 4.89062 19.9258 4.53906 19.3633 4.53906C19.1055 4.53906 18.793 4.60938 18.4492 4.74219L4.90234 9.92969C4.23047 10.1875 3.72266 10.6094 3.72266 11.2188C3.72266 11.9688 4.27734 12.25 5.04297 12.4766L10.6836 14.1328L12.3164 19.7109C12.5508 20.5078 12.8398 21.0938 13.5898 21.0938ZM11.1367 12.6953L6.28516 11.2109C6.16797 11.1797 6.13672 11.1406 6.13672 11.0938C6.13672 11.0391 6.16016 10.9922 6.26953 10.9609L15.543 7.41406C16.0887 7.20219 16.6239 6.95338 17.1919 6.68932L17.1919 6.68931L17.1921 6.68921C17.3152 6.63199 17.4398 6.57406 17.5664 6.51562C17.0039 6.96875 16.3164 7.52344 15.8398 7.99219L11.1367 12.6953ZM13.6055 18.5312C13.6367 18.6406 13.668 18.6875 13.7305 18.6875C13.7773 18.6875 13.8164 18.6484 13.8555 18.5469L17.3945 9.27344C17.5761 8.81422 17.7832 8.36231 17.9984 7.89275C18.098 7.6753 18.1994 7.45406 18.3008 7.22656C17.8555 7.79688 17.2773 8.50781 16.8164 8.96875L12.1211 13.6797L13.6055 18.5312Z" fill="#707373"/>
</svg>
